<svg xmlns="http://www.w3.org/2000/svg" xmlns:xlink="http://www.w3.org/1999/xlink" viewBox="0 0 968.31 836.51"><defs><style>.cls-1,.cls-2,.cls-3,.cls-4{opacity:0.35;}.cls-1{fill:url(#linear-gradient);}.cls-2{fill:url(#linear-gradient-2);}.cls-3{fill:url(#linear-gradient-3);}.cls-4{fill:url(#linear-gradient-4);}.cls-5{fill:#8c8c8c;}.cls-6{fill:#3f3f3f;}.cls-7{fill:url(#linear-gradient-5);}.cls-8{fill:#ed876b;}.cls-9{fill:#f3554a;}.cls-10{fill:#f4f4f4;}.cls-11,.cls-31,.cls-32,.cls-34,.cls-43,.cls-44,.cls-54{fill:none;stroke-miterlimit:10;}.cls-11{stroke:#cecece;}.cls-11,.cls-31{stroke-width:0.75px;}.cls-12{fill:#eaeaea;}.cls-13{fill:#7193aa;}.cls-14{fill:#54819b;}.cls-15{fill:#feca4e;}.cls-16{fill:#faa447;}.cls-17{fill:url(#linear-gradient-6);}.cls-18{fill:#4c4c4c;}.cls-19{fill:#f7c1ad;}.cls-20{fill:#ffe885;}.cls-21{fill:#2d2d2d;}.cls-22{fill:#e0b2a4;}.cls-23{fill:#fcc3ab;}.cls-24{fill:#ffe164;}.cls-25{fill:#595959;opacity:0.05;}.cls-26{fill:#efefef;}.cls-27{fill:#ededed;}.cls-28{fill:#f7f7f7;}.cls-29{fill:#2d2120;}.cls-30{fill:#333;}.cls-31,.cls-32,.cls-43{stroke:#333;}.cls-33{fill:#3d3d3d;}.cls-34{stroke:#2d2120;}.cls-34,.cls-43,.cls-44,.cls-54{stroke-width:0.5px;}.cls-35{fill:#fff;}.cls-36{fill:#470202;}.cls-37{fill:#ffc9bd;}.cls-38{fill:#ffd3c7;}.cls-39{fill:#f4bdb3;}.cls-40{fill:#515587;}.cls-41{fill:#f2f2f2;}.cls-42{fill:url(#linear-gradient-7);}.cls-44{stroke:#470202;}.cls-45{fill:#7f5555;}.cls-46{fill:#1e1e1e;}.cls-47{fill:#8c5d5d;}.cls-48{fill:#3b3f5b;}.cls-49{fill:#916666;}.cls-50{fill:#41465e;}.cls-51{fill:#dd7e68;}.cls-52{fill:#331916;}.cls-53{fill:url(#linear-gradient-8);}.cls-54{stroke:#331916;}</style><linearGradient id="linear-gradient" y1="136.57" x2="72.76" y2="136" gradientUnits="userSpaceOnUse"><stop offset="0" stop-color="#76e3fd" stop-opacity="0.6"/><stop offset="1" stop-color="#76e3fd"/></linearGradient><linearGradient id="linear-gradient-2" x1="895.56" y1="630.48" x2="968.31" y2="629.9" xlink:href="#linear-gradient"/><linearGradient id="linear-gradient-3" x1="889.57" y1="119.16" x2="929.74" y2="118.84" xlink:href="#linear-gradient"/><linearGradient id="linear-gradient-4" x1="136.07" y1="761.24" x2="829.24" y2="761.24" xlink:href="#linear-gradient"/><linearGradient id="linear-gradient-5" x1="549.25" y1="738.59" x2="411.51" y2="-42.58" xlink:href="#linear-gradient"/><linearGradient id="linear-gradient-6" x1="413.74" y1="469.95" x2="413.74" y2="377.51" gradientUnits="userSpaceOnUse"><stop offset="0" stop-color="#f3554a"/><stop offset="1" stop-color="#ed876b"/></linearGradient><linearGradient id="linear-gradient-7" x1="-247.26" y1="336.9" x2="-187.49" y2="336.9" gradientTransform="matrix(-1, 0, 0, 1, 329.89, 0)" xlink:href="#linear-gradient-6"/><linearGradient id="linear-gradient-8" x1="450.97" y1="246.73" x2="519.96" y2="246.73" gradientUnits="userSpaceOnUse"><stop offset="0" stop-color="#1ee0f4"/><stop offset="1" stop-color="#22a8af"/></linearGradient></defs><title>background svg00</title><g id="Layer_2" data-name="Layer 2"><g id="Layer_4" data-name="Layer 4"><circle class="cls-1" cx="36.38" cy="136.29" r="36.38"/><circle class="cls-2" cx="931.94" cy="630.19" r="36.38"/><circle class="cls-3" cx="909.65" cy="119" r="20.09"/><path class="cls-4" d="M332.77,814.08s-303.31-23.5-156.65-82.81,595.29-74,649.36,40.47S332.77,814.08,332.77,814.08Z"/><path class="cls-5" d="M572.24,126.49C487.14,53.07,319,242.51,280.13,276.4,248.3,304.19,158.7,341.57,93.52,366.54q-1.12,14.85-1.13,30c0,219,177.54,396.55,396.55,396.55S885.48,615.55,885.48,396.54A395.62,395.62,0,0,0,862.76,264c-59.49-8.74-131.18-22.33-163.44-40.25C639.25,190.4,657.34,199.91,572.24,126.49Z"/><path class="cls-6" d="M563.08,504.78c-15.42-8.22-17.68,2.58-11.77,20.1C564.71,515.43,569.76,508.35,563.08,504.78Z"/><path class="cls-6" d="M800.14,642.31c-52.63-13.58-127.45-30.85-161.26-29-36,1.94-76.4-55.27-87.57-88.41-52.8,37.22-235.25,111.28-341.77,153a395.31,395.31,0,0,0,279.4,115.16C615.11,793.09,727.51,734.15,800.14,642.31Z"/><circle class="cls-7" cx="488.94" cy="396.54" r="396.54"/><path class="cls-8" d="M721.07,531.12H601.93a41.57,41.57,0,0,1,41.57,41.57v37.43a41.57,41.57,0,0,1-41.57,41.57H721.07a41.57,41.57,0,0,0,41.57-41.57V572.69A41.57,41.57,0,0,0,721.07,531.12Z"/><path class="cls-9" d="M643.5,610.12V572.69a41.57,41.57,0,0,0-41.57-41.57H244.47v18.77H580.4A41.57,41.57,0,0,1,622,591.46h0A41.57,41.57,0,0,1,580.4,633H244.47v18.66H601.93A41.57,41.57,0,0,0,643.5,610.12Z"/><path class="cls-10" d="M599.94,633a22,22,0,0,0,22-22V571.93a22,22,0,0,0-22-22H260.26V633Z"/><line class="cls-11" x1="621.97" y1="575.62" x2="537.28" y2="575.62"/><line class="cls-11" x1="563.84" y1="603.61" x2="428.2" y2="603.61"/><line class="cls-11" x1="427.48" y1="579.21" x2="291.84" y2="579.21"/><line class="cls-11" x1="407.38" y1="616.53" x2="271.74" y2="616.53"/><path class="cls-12" d="M619.19,561.26a22,22,0,0,0-19.25-11.37H260.26v11.37Z"/><path class="cls-13" d="M313.07,531.12H415A35.36,35.36,0,0,1,379.46,496V464.35A35.36,35.36,0,0,1,415,429.21h-102a35.36,35.36,0,0,0-35.59,35.14V496A35.36,35.36,0,0,0,313.07,531.12Z"/><path class="cls-14" d="M348.89,464.35V496c0,19.4,17.35,35.13,38.76,35.13H721V515.25H407.73c-21.41,0-38.76-15.73-38.76-35.13h0c0-19.41,17.35-35.14,38.76-35.14H721V429.21H387.65C366.24,429.21,348.89,444.94,348.89,464.35Z"/><path class="cls-10" d="M389.51,445c-11.34,0-20.54,8.34-20.54,18.63v33c0,10.29,9.2,18.62,20.54,18.62H706.29V445Z"/><line class="cls-11" x1="397.89" y1="493.51" x2="470.38" y2="493.51"/><line class="cls-11" x1="447.65" y1="469.85" x2="563.75" y2="469.85"/><line class="cls-11" x1="564.36" y1="490.48" x2="680.47" y2="490.48"/><line class="cls-11" x1="581.56" y1="458.93" x2="697.67" y2="458.93"/><path class="cls-12" d="M371.56,505.64a20.9,20.9,0,0,0,17.95,9.61H706.29v-9.61Z"/><path class="cls-15" d="M667.4,343H581.1a29.92,29.92,0,0,1,30.11,29.73v26.78a29.92,29.92,0,0,1-30.11,29.73h86.3a29.92,29.92,0,0,0,30.11-29.73V372.77A29.92,29.92,0,0,0,667.4,343Z"/><path class="cls-16" d="M637.08,399.55V372.77c0-16.42-14.69-29.73-32.8-29.73H322.17v13.43H587.28c18.12,0,32.81,13.31,32.81,29.73h0c0,16.42-14.69,29.73-32.81,29.73H322.17v13.35H604.28C622.39,429.28,637.08,416,637.08,399.55Z"/><path class="cls-10" d="M602.7,415.93c9.61,0,17.39-7.05,17.39-15.76V372.23c0-8.71-7.78-15.76-17.39-15.76H334.63v59.46Z"/><line class="cls-11" x1="595.62" y1="374.87" x2="534.27" y2="374.87"/><line class="cls-11" x1="553.51" y1="394.89" x2="455.25" y2="394.89"/><line class="cls-11" x1="454.73" y1="377.43" x2="356.48" y2="377.43"/><line class="cls-11" x1="440.18" y1="404.13" x2="341.92" y2="404.13"/><path class="cls-12" d="M617.9,364.6a17.69,17.69,0,0,0-15.2-8.13H334.63v8.13Z"/><polygon class="cls-17" points="446.64 469.95 413.74 462.11 380.84 469.95 380.84 377.51 446.64 377.51 446.64 469.95"/><path class="cls-8" d="M564.93,302.26h-40a14,14,0,0,1,14,13.95v12.56a14,14,0,0,1-14,14h40a14,14,0,0,0,14-14V316.21A14,14,0,0,0,564.93,302.26Z"/><path class="cls-9" d="M538.9,328.77V316.21a14,14,0,0,0-14-13.95H405v6.3H517.72a14,14,0,0,1,13.95,13.95h0a14,14,0,0,1-13.95,13.95H405v6.26h120A14,14,0,0,0,538.9,328.77Z"/><path class="cls-10" d="M524.27,336.46a7.39,7.39,0,0,0,7.4-7.39V316a7.39,7.39,0,0,0-7.4-7.39h-114v27.9Z"/><line class="cls-11" x1="531.67" y1="317.19" x2="503.25" y2="317.19"/><line class="cls-11" x1="512.16" y1="326.59" x2="466.63" y2="326.59"/><line class="cls-11" x1="466.39" y1="318.4" x2="420.87" y2="318.4"/><line class="cls-11" x1="459.65" y1="330.92" x2="414.12" y2="330.92"/><path class="cls-12" d="M530.74,312.37a7.39,7.39,0,0,0-6.47-3.81h-114v3.81Z"/><rect class="cls-9" x="380.84" y="377.51" width="65.8" height="14.1"/><path class="cls-10" d="M228.44,336.34c.46-2,1-3.83,1.5-5.5a22.21,22.21,0,0,1,3.57-7.35c2,.29,4.22.66,6.55,1.14-1.95,1.7-3.55,5.65-4.86,11-3.4,13.85-4.91,37.2-5.66,56.3l-6.72,0S223.65,356.93,228.44,336.34Z"/><polygon class="cls-18" points="273.11 601.94 272.46 625.44 285.28 625.44 285.28 601.94 273.11 601.94"/><polygon class="cls-19" points="367.87 294.44 400.38 264.94 392.47 257.04 359.96 286.54 367.87 294.44"/><path class="cls-20" d="M291.9,325.12s31.3,22,68.7-15.86l20.6-21-12.42-13.68-18.55,12.52L316.84,307.8c-2.69,1.66-10.16,6.67-13.12,7.78Z"/><path class="cls-19" d="M392.06,253.29c.89-4.71,8.07-5,11.35-2s4.78,11.52.1,13.25c-6.87,2.55-7.91,6.08-9.75,4.48-1.05-.91-5.6-3.11-5.82-7.13-.07-1.24.86-1.16,2.27-2.55a11.8,11.8,0,0,0,1.64-3.16A14.05,14.05,0,0,0,392.06,253.29Z"/><path class="cls-21" d="M246.77,437.41s20.81,60.5,16.11,170.8h36s0-169.33-3.43-179.94c-3.64-11.28-48.72,9.14-48.72,9.14"/><path class="cls-21" d="M290.28,448s12.31,50.23,18,160.19h32.9s2.66-166.46-4.07-176.25S290.28,448,290.28,448"/><path class="cls-19" d="M298.64,271.3s2.18,35.7,12.43,55.43-8.07,16-8.07,16l-27.24-17.49L283.33,281Z"/><path class="cls-22" d="M303.49,304.46a232.12,232.12,0,0,1-4.85-33.16L283.33,281,280,300.43C285.46,302,297,304.88,303.49,304.46Z"/><path class="cls-23" d="M329.78,265.84c-2.44,21.62-18.25,37.58-37.21,35.45s-33.88-21.56-31.45-43.18,21.3-37.25,40.26-35.11S332.21,244.22,329.78,265.84Z"/><polygon class="cls-19" points="189.15 387.03 176.54 429.09 187.39 431.77 200 389.71 189.15 387.03"/><path class="cls-19" d="M189.68,434.77c1.67,4.49-4.33,8.45-8.66,7.61S171,435,174.09,431.09c4.57-5.74,3.64-9.29,6-8.88,1.37.24,6.4-.22,8.66,3.11.7,1-.13,1.44-.62,3.35a11.69,11.69,0,0,0,.22,3.55A14.56,14.56,0,0,0,189.68,434.77Z"/><path class="cls-24" d="M181.32,400l16.75,4.15,10.66-21.75a125.33,125.33,0,0,1,24.4-33.91l15.05-14.86L268,313.57s-61.94,1.73-77.94,56.32Z"/><path class="cls-24" d="M343.15,437.29a10.29,10.29,0,0,1-2.27,7.9c-2.16,2.5-4.92,3.21-9,3.21H256.35c-8.45,0-17-12.63-17-23.51L241,356.3c0-20.68,11.25-38.57,27-42.8a48.61,48.61,0,0,1,11.44-1.89h23.05c5.17,0,14.88-1.53,23.46,6.74,6.48,6.26,5.32,5.33,6.4,15.67l4.39,45.47Z"/><path class="cls-25" d="M257.29,324.45c0-.25,0-.51,0-.76a78.2,78.2,0,0,0-.65-8.74c-1.49.27-3.09.6-4.79,1a100.3,100.3,0,0,1,.29,13l0,.76c-.46,14.74-2.44,34.85-2.88,53.08l4.84-.23s2.79-30.77,3.22-55.76C257.31,326,257.3,325.23,257.29,324.45Z"/><rect class="cls-26" x="217.24" y="380.02" width="55.79" height="2.15"/><polygon class="cls-18" points="318.08 603.51 317.43 627.01 330.25 627.01 330.25 603.51 318.08 603.51"/><path class="cls-27" d="M316.15,620.74l4.63,1.48c2.89,1,6.59,0,9.67-1l1.56-.5h5.49a41.27,41.27,0,0,1,12.79,2c4,1.32,8.16,3.23,8.16,5.53V632h-42.3"/><path class="cls-28" d="M316.15,630.69V632a1.36,1.36,0,0,0,1.43,1.29h40.87v-2.58Z"/><path class="cls-27" d="M270.71,622.31l4.63,1.48c2.89,1,6.59,0,9.67-1l1.57-.5h5.48a41.23,41.23,0,0,1,12.79,2c4,1.32,8.17,3.23,8.17,5.53v3.76H270.71"/><path class="cls-28" d="M270.71,632.26v1.29a1.38,1.38,0,0,0,1.44,1.29H313v-2.58Z"/><circle class="cls-23" cx="261.35" cy="260.18" r="5.37"/><circle class="cls-29" cx="303.86" cy="226.7" r="13.32"/><circle class="cls-29" cx="285.06" cy="225.13" r="13.32"/><ellipse class="cls-29" cx="261.8" cy="250.2" rx="8.32" ry="8.62"/><circle class="cls-29" cx="317.96" cy="229.83" r="13.32"/><path class="cls-29" d="M264.45,255.68c14.1-3.13,11-7.83,25.07-11s34.1,1.56,34.28-4.7-18-15.64-18-15.64l-34.08,2.32-10.43,10.18s-6.26,18.8-3.13,18.8Z"/><ellipse class="cls-29" cx="264.93" cy="240.8" rx="8.62" ry="8.32" transform="translate(-54.43 402.61) rotate(-69.14)"/><ellipse class="cls-29" cx="271.2" cy="231.4" rx="8.62" ry="8.32" transform="translate(-41.61 402.42) rotate(-69.14)"/><ellipse class="cls-30" cx="311.86" cy="263.94" rx="3.01" ry="4.46"/><ellipse class="cls-30" cx="291.09" cy="264.75" rx="3.01" ry="4.46"/><path class="cls-31" d="M300.73,269.61c2,2.28,3.43,3.72,4.86,5.43s-1.14,4.3-1.14,4.3"/><path class="cls-32" d="M304.15,289.4s-11.8.89-13.81-4"/><path class="cls-33" d="M263.11,601.87c-.07,2.1-.14,4.19-.23,6.34h36s0-2.31,0-6.34Z"/><path class="cls-33" d="M308,601.64c.12,2.17.24,4.35.36,6.57h32.9s0-2.4.09-6.57Z"/><path class="cls-34" d="M290.55,253.78a33.31,33.31,0,0,0-8.39,5.24"/><path class="cls-34" d="M317.21,253.46a26.34,26.34,0,0,0-9-.23"/><circle class="cls-35" cx="291.64" cy="265.53" r="1.81"/><path class="cls-10" d="M262,326.28q-.49-2.91-1.14-5.4a.85.85,0,0,0,0-.17,27.87,27.87,0,0,0-2.21-6.09c-1.85.3-3.93.69-6.16,1.19a33.27,33.27,0,0,1,2.84,9.4c.07.36.13.75.19,1.12,2.39,14.12,2.52,36.79,2.17,55.42l6.71.43S265.52,347.12,262,326.28Z"/><path class="cls-10" d="M217.24,461.82H273V380l-24.94,1.1c-1.54.07-3.08.07-4.61,0L217.24,380Z"/><path class="cls-36" d="M652.34,368.83l10.51.65s13.22-111.35-28.82-113c-7.95-.32-15.22-.62-20.18,1.26-21.47,8.18-18.7,32-26.64,95.66l58.62,16.44Z"/><path class="cls-37" d="M629.76,363.92l4.88-51.63-14.46-2.11s-3.65,39.21-11.39,68.75Z"/><circle class="cls-38" cx="601.19" cy="289.72" r="4.19"/><circle class="cls-37" cx="601.8" cy="289.97" r="2.46"/><path class="cls-39" d="M633.46,323.88l1.18-11.59-14.46-2.11s-.5,5.33-1.51,13.52C622.48,324.72,628.63,323.81,633.46,323.88Z"/><path class="cls-38" d="M615.59,265.91h18.73a15.79,15.79,0,0,1,15.79,15.79v28.58a12,12,0,0,1-12,12H611.8A10.79,10.79,0,0,1,601,311.5v-31A14.58,14.58,0,0,1,615.59,265.91Z" transform="translate(1202.07 675.5) rotate(-171.69)"/><path class="cls-38" d="M609.93,575l9.16-7a3.67,3.67,0,0,0,1.1-3.63l-5.1-25.94,10.35-2,6.92,32.2-1,.19,0,.09-3.09,4.65-18.56,6Z"/><path class="cls-14" d="M594.23,591.51l42-17.7-3.37-8-4.15,3c-2.58,1.92-13.79,6-17.15,6.62l-1.71.3-10.32,5.78a28.78,28.78,0,0,0-4.22,3.52,6,6,0,0,0-1.12,6.48Z"/><path class="cls-38" d="M565.54,572.22l10.33-4.31a3.06,3.06,0,0,0,1.79-2.86V542.51h10.55l.57,28.07h-1v.09l-3.93,3.38-19.37,2Z"/><path class="cls-14" d="M546.94,584.77l44.67-9.25-1.76-8.5-4.66,2.12c-2.89,1.39-14.69,3.26-18.1,3.19l-1.73,0L554.11,576a28.35,28.35,0,0,0-4.82,2.63,6.07,6.07,0,0,0-2.35,6.15Z"/><path class="cls-12" d="M557.42,543.07s6.46-81.32,12.07-101.94,11-29.58,11-29.58l65,4.77s-6.62,14.94-9.53,52.19a181.35,181.35,0,0,0-.36,21.11l4.75,53.5Z"/><path class="cls-40" d="M579.8,415.4l63.38,5.05c5.25.26,5-7.64,4.78-14.78-.4-15.64-2-27.22,3.28-39.78l6.12-14.45a19.45,19.45,0,0,0-18.44-20.31l-23.62-1c-10.66-.51-26,3.66-26.51,14.32l-3.29,34.83C585,389.93,577,407.57,579.8,415.4Z"/><path class="cls-38" d="M648.79,345.12a5.54,5.54,0,0,1,7.81,2.21l33.89,62.18,5.81,9.89,1.69,3a6.4,6.4,0,0,0,4.47,3.22c20.34-.29,17,3.68,17,3.68H685.59l-.11-.64c-.29-1.72,1.35-1.71.95-3.4a17.66,17.66,0,0,0-1.52-3.55h0L646.7,353.39A6.25,6.25,0,0,1,648.79,345.12Z"/><path class="cls-40" d="M659.55,380.55,673.11,373l-16.57-27.56a6.46,6.46,0,0,0-8.62-2.22l-2.63,1.46A5.93,5.93,0,0,0,643,353Z"/><ellipse class="cls-36" cx="610.41" cy="267.86" rx="5.85" ry="5.6"/><path class="cls-36" d="M654.74,281.37l-5.31-4.06s-2.1,11.57,1.84,20.15,4.41,11.15,4.41,11.15l3-20.06Z"/><ellipse class="cls-36" cx="604.79" cy="271.63" rx="4.3" ry="4.12"/><ellipse class="cls-36" cx="646.59" cy="273.81" rx="5.85" ry="5.6"/><circle class="cls-38" cx="650.98" cy="294.14" r="4.19"/><circle class="cls-37" cx="651.59" cy="294.4" r="2.46"/><polygon class="cls-41" points="567.57 314.36 543.23 323.05 547.76 344.03 570.09 334.15 567.57 314.36"/><path class="cls-36" d="M632.34,258.63s22.65.89,23.71,29.23l-32-5,.22-9.87-1.81,9.72-28.63-1.51S599.87,252,632.34,258.63Z"/><path class="cls-38" d="M573.76,379.91l-4.09-4.36,22.48-36.46c1.65-2.79,3.27-3.91,5.85-2.15a6.22,6.22,0,0,1,1.69,8.23L574.45,387C575.15,384.43,574.92,381.54,573.76,379.91Z"/><path class="cls-38" d="M553.84,357.26l20.19,22c1.68,1.93,2.55,5.41.38,7.76-1.65,1.78-6.44,1.14-8.11-.79l-22.52-26.36Z"/><path class="cls-40" d="M586.55,372.49l-11.91-6.56,16.52-27.6c1.73-2.9,5.28-4.07,7.93-2.61L601.4,337c2.65,1.46,3.39,5,1.66,7.9Z"/><polygon class="cls-41" points="524.73 310.15 543.23 323.05 538.7 344.23 525.3 334.88 524.73 310.15"/><polygon class="cls-35" points="543.23 323.05 519.92 312.13 518.21 313.68 527.08 347.81 554.84 357.62 576.08 353.99 570.9 315.29 543.23 323.05"/><path class="cls-42" d="M545.74,324.85h0a8,8,0,0,1-4.67-.26l-23.69-11.45,8.6,36.48,21.46,11,29.71-4.84-4.92-38.26Z"/><path class="cls-38" d="M538.74,351.11l17.93,6.65a1.07,1.07,0,0,1,.33,1.79c-3.22,3.09-12.51,9.77-19.74-6.94A1.16,1.16,0,0,1,538.74,351.11Z"/><ellipse class="cls-29" cx="613.74" cy="293.08" rx="2.5" ry="2.17" transform="translate(234.98 857.98) rotate(-81.68)"/><ellipse class="cls-29" cx="630.68" cy="294.62" rx="2.5" ry="2.17" transform="translate(247.95 876.06) rotate(-81.68)"/><path class="cls-43" d="M621.24,299.41c-1.66,1.5-2.19,3.14-1.83,3.56s2,2.24,2,2.24"/><path class="cls-43" d="M627.72,311.71c-1.31,1.61-2.28,2.9-11.11.68"/><path class="cls-44" d="M630.8,286.49s5.82.28,7.76,5"/><path class="cls-44" d="M617.81,285.85s-6.24-.62-9.47,2.81"/><circle class="cls-35" cx="613.49" cy="294.2" r="1.03"/><circle class="cls-35" cx="630.29" cy="295.27" r="1.03"/><path class="cls-45" d="M483.94,143.54s-4.8,45.21-15.9,70.9,6.3,19.53,6.3,19.53l26.79-24.18-3.65-55.17Z"/><polygon class="cls-46" points="548.32 295.49 535.75 291.6 534.98 306.13 556.01 304.95 548.32 295.49"/><path class="cls-35" d="M545.27,292.89s1.05-.64,2.67-1.57a23.19,23.19,0,0,0,2.65,4l1-1a21.42,21.42,0,0,1-2.47-3.7l1.81-1a5.12,5.12,0,0,0,2.68,3.31l.25-.69.26-.7a3.56,3.56,0,0,1-1.93-2.58l.5-.27c7.69-4,18.36-8.38,16.75-1.29a78.92,78.92,0,0,1-8.07,20.31h-18Z"/><path class="cls-46" d="M550.59,295.33a23.19,23.19,0,0,1-2.65-4l1.22-.68a21.42,21.42,0,0,0,2.47,3.7Z"/><path class="cls-46" d="M554.16,291.56l-.26.7.26-.7-.26.7-.25.69a5.12,5.12,0,0,1-2.68-3.31l1.26-.66A3.56,3.56,0,0,0,554.16,291.56Z"/><path class="cls-8" d="M477.07,181.3s6.56,3,24.44.46c16.14-2.3,20.29,29.51,20.29,29.51l1,74.14-76.87,2,1.67-76.13S457.15,177.32,477.07,181.3Z"/><path class="cls-47" d="M489.87,177.51h-5.63c-12.65,0-23-17.89-23-30.55h0a23.08,23.08,0,0,1,23-23h5.63a23.09,23.09,0,0,1,23,23h0C512.89,159.62,502.53,177.51,489.87,177.51Z"/><path class="cls-48" d="M543.17,291.59l-125.85-23.1a16,16,0,0,0-14.42,4.27c-3.53,3.58-5.21,9,2.23,16.54,14.87,15,133.37,18.39,133.37,18.39Z"/><polygon class="cls-46" points="425.31 293.06 437.61 288.45 438.1 304.86 417.66 303.88 425.31 293.06"/><ellipse class="cls-47" cx="461.05" cy="142.86" rx="3.27" ry="4.25"/><ellipse class="cls-49" cx="461.05" cy="142.86" rx="2.38" ry="3.1"/><ellipse class="cls-47" cx="513.11" cy="141.38" rx="3.27" ry="4.25"/><ellipse class="cls-49" cx="513.11" cy="141.38" rx="2.38" ry="3.1"/><path class="cls-50" d="M433.69,288.06,547,260.33a11.88,11.88,0,0,1,12.56,4.2c2.92,3.73,4.06,9.5-3,17.69-14.16,16.36-119.74,22.89-119.74,22.89Z"/><path class="cls-51" d="M441.47,233.09a7,7,0,0,1-2.76-8.18c1.94-5.3,7.29-11.67,9.7-15.37l14.08-24.12S399.83,217.48,430,241.13c27.63,21.64,30.73,16.77,30.73,16.77l3.48-9.57Z"/><path class="cls-51" d="M518.92,203.77l-9.7-20.36s65.87,39.27,30.39,58.17c-27.15,14.46-33.72,17.83-33.72,17.83l-1.6-10.73,24.8-16.56a9.16,9.16,0,0,0,.44-12.7l-4.38-5.58A53.81,53.81,0,0,1,518.92,203.77Z"/><circle class="cls-52" cx="507.27" cy="117.57" r="15.87"/><circle class="cls-52" cx="472.92" cy="119.24" r="15.87"/><ellipse class="cls-52" cx="516.25" cy="132.51" rx="10.27" ry="9.91"/><circle class="cls-52" cx="487.95" cy="111.76" r="15.87"/><ellipse class="cls-52" cx="455.97" cy="133.87" rx="10.27" ry="9.91" transform="translate(168.5 512.28) rotate(-69.14)"/><ellipse class="cls-52" cx="456.4" cy="126.71" rx="10.27" ry="9.91" transform="translate(175.47 508.07) rotate(-69.14)"/><ellipse class="cls-52" cx="487.35" cy="123.12" rx="10.27" ry="9.91" transform="translate(198.75 534.68) rotate(-69.14)"/><ellipse class="cls-52" cx="501.27" cy="129.84" rx="10.27" ry="9.91" transform="translate(201.44 552.01) rotate(-69.14)"/><ellipse class="cls-52" cx="484.64" cy="129.64" rx="10.27" ry="9.91" transform="translate(190.92 536.35) rotate(-69.14)"/><ellipse class="cls-52" cx="467.73" cy="133.77" rx="10.27" ry="9.91" transform="translate(176.17 523.2) rotate(-69.14)"/><ellipse class="cls-29" cx="494.99" cy="150.09" rx="2.52" ry="2.65"/><ellipse class="cls-29" cx="481.3" cy="150.15" rx="2.52" ry="2.65"/><line class="cls-34" x1="488.35" y1="155.71" x2="488.35" y2="159.71"/><polygon class="cls-41" points="510.1 220.46 485.65 235.4 487.2 257.21 516.29 246.01 510.1 220.46"/><polygon class="cls-41" points="457.82 220.83 485.65 235.4 475.39 257.44 457.94 246.84 457.82 220.83"/><polygon class="cls-35" points="485.65 235.4 453.84 222.75 451.85 225.26 460.25 261.5 488.35 265.15 515.32 260.29 516.48 221.47 485.65 235.4"/><path class="cls-53" d="M483.54,237.83,451,223.14l4.94,39.43L488.49,271l29.26-9.35L520,222.48l-31.45,15.26A6.31,6.31,0,0,1,483.54,237.83Z"/><path class="cls-34" d="M481.77,164.53c4.52,3.67,12.44,1.41,12.44,1.41"/><path class="cls-35" d="M430.12,290.36s-1.13-.64-2.9-1.57a24.07,24.07,0,0,1-2.88,4l-1.12-1a21.88,21.88,0,0,0,2.67-3.71l-2-1a5.34,5.34,0,0,1-2.91,3.31l-.28-.7-.28-.69a3.66,3.66,0,0,0,2.1-2.59l-.54-.26c-8.36-4-19.95-8.39-18.2-1.29a76.13,76.13,0,0,0,8.76,20.31h19.56Z"/><path class="cls-46" d="M424.34,292.8a24.07,24.07,0,0,0,2.88-4l-1.33-.69a21.88,21.88,0,0,1-2.67,3.71Z"/><path class="cls-46" d="M420.46,289l.28.69-.27-.7.27.7.28.7a5.34,5.34,0,0,0,2.91-3.31l-1.37-.67A3.66,3.66,0,0,1,420.46,289Z"/><path class="cls-54" d="M493.82,141.51s5.79-.66,8.47,3.72"/><path class="cls-54" d="M483.07,141.48s-6.24-.62-9.48,2.81"/><circle class="cls-35" cx="312.12" cy="265.53" r="1.81"/></g></g></svg>