<svg xmlns="http://www.w3.org/2000/svg" viewBox="0 0 54.65 54.65"><defs><style>.cls-1{fill:#ffe600;}</style></defs><title>bookicon0</title><g id="Layer_2" data-name="Layer 2"><g id="Layer_3" data-name="Layer 3"><circle class="cls-1" cx="27.33" cy="27.33" r="27.33"/><path d="M14.73,37.28a4.14,4.14,0,0,1,2.51-.89l17.81.1,6.29-24.1-17-.09a4.41,4.41,0,0,0-3.92,3.28l-5.73,21.7Zm9.8-21.22,11.63.07-.37,1.42-11.63-.06Zm-1.57,6,11.63.07-.37,1.43-11.63-.07Z"/><path d="M33.84,41.09,17.12,41l.37-1.42,16.73.09.45-1.74-17.74-.11A3.29,3.29,0,0,0,14,40.26a1.8,1.8,0,0,0,1.64,2.48l17.8.1.45-1.75Z"/></g></g></svg>